<svg xmlns="http://www.w3.org/2000/svg" shape-rendering="crispEdges" version="1.1" viewBox="0 0 176 160" height="160" width="176"><g transform="scale(16 16)"><rect fill="#e2ffea" x="0" y="0" height="1" width="1"/><rect fill="#e2ffea" x="1" y="0" height="1" width="1"/><rect fill="#e2ffea" x="2" y="0" height="1" width="1"/><rect fill="#e2ffea" x="3" y="0" height="1" width="1"/><rect fill="#e2ffea" x="4" y="0" height="1" width="1"/><rect fill="#e2ffea" x="5" y="0" height="1" width="1"/><rect fill="#e2ffea" x="6" y="0" height="1" width="1"/><rect fill="#e2ffea" x="7" y="0" height="1" width="1"/><rect fill="#e2ffea" x="8" y="0" height="1" width="1"/><rect fill="#e2ffea" x="9" y="0" height="1" width="1"/><rect fill="#e2ffea" x="10" y="0" height="1" width="1"/><rect fill="#e2ffea" x="0" y="1" height="1" width="1"/><rect fill="#e2ffea" x="1" y="1" height="1" width="1"/><rect fill="#e2ffea" x="2" y="1" height="1" width="1"/><rect fill="#e2ffea" x="3" y="1" height="1" width="1"/><rect fill="#e2ffea" x="4" y="1" height="1" width="1"/><rect fill="#e2ffea" x="5" y="1" height="1" width="1"/><rect fill="#e2ffea" x="6" y="1" height="1" width="1"/><rect fill="#e2ffea" x="7" y="1" height="1" width="1"/><rect fill="#e2ffea" x="8" y="1" height="1" width="1"/><rect fill="#e2ffea" x="9" y="1" height="1" width="1"/><rect fill="#e2ffea" x="10" y="1" height="1" width="1"/><rect fill="#e2ffea" x="0" y="2" height="1" width="1"/><rect fill="#e2ffea" x="1" y="2" height="1" width="1"/><rect fill="#0EA5E9" x="2" y="2" height="1" width="1"/><rect fill="#0EA5E9" x="3" y="2" height="1" width="1"/><rect fill="#0EA5E9" x="4" y="2" height="1" width="1"/><rect fill="#e2ffea" x="5" y="2" height="1" width="1"/><rect fill="#0EA5E9" x="6" y="2" height="1" width="1"/><rect fill="#0EA5E9" x="7" y="2" height="1" width="1"/><rect fill="#0EA5E9" x="8" y="2" height="1" width="1"/><rect fill="#e2ffea" x="9" y="2" height="1" width="1"/><rect fill="#e2ffea" x="10" y="2" height="1" width="1"/><rect fill="#e2ffea" x="0" y="3" height="1" width="1"/><rect fill="#e2ffea" x="1" y="3" height="1" width="1"/><rect fill="#0EA5E9" x="2" y="3" height="1" width="1"/><rect fill="#0EA5E9" x="3" y="3" height="1" width="1"/><rect fill="#0EA5E9" x="4" y="3" height="1" width="1"/><rect fill="#e2ffea" x="5" y="3" height="1" width="1"/><rect fill="#0EA5E9" x="6" y="3" height="1" width="1"/><rect fill="#e2ffea" x="7" y="3" height="1" width="1"/><rect fill="#0EA5E9" x="8" y="3" height="1" width="1"/><rect fill="#e2ffea" x="9" y="3" height="1" width="1"/><rect fill="#e2ffea" x="10" y="3" height="1" width="1"/><rect fill="#e2ffea" x="0" y="4" height="1" width="1"/><rect fill="#e2ffea" x="1" y="4" height="1" width="1"/><rect fill="#0EA5E9" x="2" y="4" height="1" width="1"/><rect fill="#e2ffea" x="3" y="4" height="1" width="1"/><rect fill="#e2ffea" x="4" y="4" height="1" width="1"/><rect fill="#e2ffea" x="5" y="4" height="1" width="1"/><rect fill="#0EA5E9" x="6" y="4" height="1" width="1"/><rect fill="#e2ffea" x="7" y="4" height="1" width="1"/><rect fill="#0EA5E9" x="8" y="4" height="1" width="1"/><rect fill="#e2ffea" x="9" y="4" height="1" width="1"/><rect fill="#e2ffea" x="10" y="4" height="1" width="1"/><rect fill="#e2ffea" x="0" y="5" height="1" width="1"/><rect fill="#e2ffea" x="1" y="5" height="1" width="1"/><rect fill="#0EA5E9" x="2" y="5" height="1" width="1"/><rect fill="#e2ffea" x="3" y="5" height="1" width="1"/><rect fill="#e2ffea" x="4" y="5" height="1" width="1"/><rect fill="#e2ffea" x="5" y="5" height="1" width="1"/><rect fill="#0EA5E9" x="6" y="5" height="1" width="1"/><rect fill="#e2ffea" x="7" y="5" height="1" width="1"/><rect fill="#0EA5E9" x="8" y="5" height="1" width="1"/><rect fill="#e2ffea" x="9" y="5" height="1" width="1"/><rect fill="#e2ffea" x="10" y="5" height="1" width="1"/><rect fill="#e2ffea" x="0" y="6" height="1" width="1"/><rect fill="#e2ffea" x="1" y="6" height="1" width="1"/><rect fill="#0EA5E9" x="2" y="6" height="1" width="1"/><rect fill="#0EA5E9" x="3" y="6" height="1" width="1"/><rect fill="#0EA5E9" x="4" y="6" height="1" width="1"/><rect fill="#e2ffea" x="5" y="6" height="1" width="1"/><rect fill="#0EA5E9" x="6" y="6" height="1" width="1"/><rect fill="#e2ffea" x="7" y="6" height="1" width="1"/><rect fill="#0EA5E9" x="8" y="6" height="1" width="1"/><rect fill="#e2ffea" x="9" y="6" height="1" width="1"/><rect fill="#e2ffea" x="10" y="6" height="1" width="1"/><rect fill="#e2ffea" x="0" y="7" height="1" width="1"/><rect fill="#e2ffea" x="1" y="7" height="1" width="1"/><rect fill="#0EA5E9" x="2" y="7" height="1" width="1"/><rect fill="#0EA5E9" x="3" y="7" height="1" width="1"/><rect fill="#0EA5E9" x="4" y="7" height="1" width="1"/><rect fill="#e2ffea" x="5" y="7" height="1" width="1"/><rect fill="#0EA5E9" x="6" y="7" height="1" width="1"/><rect fill="#0EA5E9" x="7" y="7" height="1" width="1"/><rect fill="#0EA5E9" x="8" y="7" height="1" width="1"/><rect fill="#e2ffea" x="9" y="7" height="1" width="1"/><rect fill="#e2ffea" x="10" y="7" height="1" width="1"/><rect fill="#e2ffea" x="0" y="8" height="1" width="1"/><rect fill="#e2ffea" x="1" y="8" height="1" width="1"/><rect fill="#e2ffea" x="2" y="8" height="1" width="1"/><rect fill="#e2ffea" x="3" y="8" height="1" width="1"/><rect fill="#e2ffea" x="4" y="8" height="1" width="1"/><rect fill="#e2ffea" x="5" y="8" height="1" width="1"/><rect fill="#e2ffea" x="6" y="8" height="1" width="1"/><rect fill="#e2ffea" x="7" y="8" height="1" width="1"/><rect fill="#e2ffea" x="8" y="8" height="1" width="1"/><rect fill="#e2ffea" x="9" y="8" height="1" width="1"/><rect fill="#e2ffea" x="10" y="8" height="1" width="1"/><rect fill="#e2ffea" x="0" y="9" height="1" width="1"/><rect fill="#e2ffea" x="1" y="9" height="1" width="1"/><rect fill="#e2ffea" x="2" y="9" height="1" width="1"/><rect fill="#e2ffea" x="3" y="9" height="1" width="1"/><rect fill="#e2ffea" x="4" y="9" height="1" width="1"/><rect fill="#e2ffea" x="5" y="9" height="1" width="1"/><rect fill="#e2ffea" x="6" y="9" height="1" width="1"/><rect fill="#e2ffea" x="7" y="9" height="1" width="1"/><rect fill="#e2ffea" x="8" y="9" height="1" width="1"/><rect fill="#e2ffea" x="9" y="9" height="1" width="1"/><rect fill="#e2ffea" x="10" y="9" height="1" width="1"/></g></svg>